<svg id="Layer_1" data-name="Layer 1" xmlns="http://www.w3.org/2000/svg" xmlns:xlink="http://www.w3.org/1999/xlink" viewBox="0 0 1174.76 743.68"><defs><style>.cls-1{fill:#c6e1f7}.cls-2{fill:url(#Degradado_sin_nombre_16)}.cls-3{fill:url(#Degradado_sin_nombre_16-2)}.cls-4{fill:url(#Degradado_sin_nombre_16-3)}.cls-5{fill:url(#Degradado_sin_nombre_16-4)}.cls-6{fill:url(#Degradado_sin_nombre_16-5)}.cls-7{fill:url(#Degradado_sin_nombre_16-6)}.cls-8{fill:url(#Degradado_sin_nombre_16-7)}.cls-9{fill:url(#Degradado_sin_nombre_16-8)}.cls-10{fill:url(#Degradado_sin_nombre_16-9)}.cls-11{fill:url(#Degradado_sin_nombre_16-10)}.cls-12{fill:url(#Degradado_sin_nombre_16-11)}.cls-13{fill:url(#Degradado_sin_nombre_16-12)}.cls-14{fill:url(#Degradado_sin_nombre_16-13)}.cls-15{fill:url(#Degradado_sin_nombre_16-14)}.cls-16{fill:url(#Degradado_sin_nombre_16-15)}.cls-17{fill:url(#Degradado_sin_nombre_16-16)}.cls-18{fill:url(#Degradado_sin_nombre_16-17)}.cls-19{fill:url(#Degradado_sin_nombre_16-18)}.cls-20{fill:url(#Degradado_sin_nombre_16-19)}.cls-21{fill:url(#Degradado_sin_nombre_16-20)}.cls-22{fill:url(#Degradado_sin_nombre_16-21)}.cls-23{fill:url(#Degradado_sin_nombre_16-22)}.cls-24{fill:url(#Degradado_sin_nombre_16-23)}.cls-25{fill:url(#Degradado_sin_nombre_16-24)}.cls-26{fill:url(#Degradado_sin_nombre_16-25)}.cls-27{fill:url(#Degradado_sin_nombre_16-26)}.cls-28{fill:url(#Degradado_sin_nombre_16-27)}.cls-29{fill:url(#Degradado_sin_nombre_16-28)}.cls-30{fill:url(#Degradado_sin_nombre_16-29)}.cls-31{fill:url(#Degradado_sin_nombre_16-30)}.cls-32{fill:url(#Degradado_sin_nombre_16-31)}.cls-33{fill:url(#Degradado_sin_nombre_16-32)}.cls-34{fill:url(#Degradado_sin_nombre_16-33)}.cls-35{fill:url(#Degradado_sin_nombre_16-34)}.cls-36{fill:url(#Degradado_sin_nombre_16-35)}.cls-37{fill:url(#Degradado_sin_nombre_16-36)}.cls-38{fill:url(#Degradado_sin_nombre_16-37)}.cls-39{fill:url(#Degradado_sin_nombre_16-38)}.cls-40{fill:url(#Degradado_sin_nombre_16-39)}.cls-41{fill:url(#Degradado_sin_nombre_16-40)}.cls-42{fill:url(#Degradado_sin_nombre_16-41)}.cls-43{fill:url(#Degradado_sin_nombre_16-42)}.cls-44{fill:url(#Degradado_sin_nombre_16-43)}.cls-45{fill:url(#Degradado_sin_nombre_16-44)}.cls-46{fill:url(#Degradado_sin_nombre_16-45)}.cls-47{fill:url(#Degradado_sin_nombre_16-46)}</style><linearGradient id="Degradado_sin_nombre_16" x1="317.38" y1="314.27" x2="1150.59" y2="307.95" gradientUnits="userSpaceOnUse"><stop offset="0" stop-color="#fff"/><stop offset=".14" stop-color="#fff"/><stop offset=".33" stop-color="#eaf6fc"/><stop offset="1" stop-color="#a2d6f0"/></linearGradient><linearGradient id="Degradado_sin_nombre_16-2" x1="317.43" y1="320.12" x2="1150.64" y2="313.8" xlink:href="#Degradado_sin_nombre_16"/><linearGradient id="Degradado_sin_nombre_16-3" x1="317.52" y1="332.65" x2="1150.73" y2="326.33" xlink:href="#Degradado_sin_nombre_16"/><linearGradient id="Degradado_sin_nombre_16-4" x1="317.38" y1="313.35" x2="1150.59" y2="307.03" xlink:href="#Degradado_sin_nombre_16"/><linearGradient id="Degradado_sin_nombre_16-5" x1="317.38" y1="313.59" x2="1150.59" y2="307.27" xlink:href="#Degradado_sin_nombre_16"/><linearGradient id="Degradado_sin_nombre_16-6" x1="317.57" y1="339.46" x2="1150.78" y2="333.14" xlink:href="#Degradado_sin_nombre_16"/><linearGradient id="Degradado_sin_nombre_16-7" x1="317.16" y1="285.23" x2="1150.37" y2="278.91" xlink:href="#Degradado_sin_nombre_16"/><linearGradient id="Degradado_sin_nombre_16-8" x1="317.15" y1="283.42" x2="1150.36" y2="277.1" xlink:href="#Degradado_sin_nombre_16"/><linearGradient id="Degradado_sin_nombre_16-9" x1="317.26" y1="297.89" x2="1150.47" y2="291.57" xlink:href="#Degradado_sin_nombre_16"/><linearGradient id="Degradado_sin_nombre_16-10" x1="317.3" y1="303.34" x2="1150.51" y2="297.02" xlink:href="#Degradado_sin_nombre_16"/><linearGradient id="Degradado_sin_nombre_16-11" x1="317.09" y1="274.9" x2="1150.29" y2="268.58" xlink:href="#Degradado_sin_nombre_16"/><linearGradient id="Degradado_sin_nombre_16-12" x1="317.37" y1="312.28" x2="1150.58" y2="305.96" xlink:href="#Degradado_sin_nombre_16"/><linearGradient id="Degradado_sin_nombre_16-13" x1="317.06" y1="271.35" x2="1150.27" y2="265.03" xlink:href="#Degradado_sin_nombre_16"/><linearGradient id="Degradado_sin_nombre_16-14" x1="316.87" y1="245.88" x2="1150.07" y2="239.56" xlink:href="#Degradado_sin_nombre_16"/><linearGradient id="Degradado_sin_nombre_16-15" x1="316.76" y1="231.91" x2="1149.97" y2="225.59" xlink:href="#Degradado_sin_nombre_16"/><linearGradient id="Degradado_sin_nombre_16-16" x1="316.8" y1="236.95" x2="1150.01" y2="230.63" xlink:href="#Degradado_sin_nombre_16"/><linearGradient id="Degradado_sin_nombre_16-17" x1="317.36" y1="311.2" x2="1150.57" y2="304.88" xlink:href="#Degradado_sin_nombre_16"/><linearGradient id="Degradado_sin_nombre_16-18" x1="317.44" y1="322.26" x2="1150.65" y2="315.94" xlink:href="#Degradado_sin_nombre_16"/><linearGradient id="Degradado_sin_nombre_16-19" x1="317.49" y1="328.05" x2="1150.7" y2="321.73" xlink:href="#Degradado_sin_nombre_16"/><linearGradient id="Degradado_sin_nombre_16-20" x1="317.58" y1="339.55" x2="1150.78" y2="333.23" xlink:href="#Degradado_sin_nombre_16"/><linearGradient id="Degradado_sin_nombre_16-21" x1="317.43" y1="320.19" x2="1150.64" y2="313.86" xlink:href="#Degradado_sin_nombre_16"/><linearGradient id="Degradado_sin_nombre_16-22" x1="317.38" y1="313.84" x2="1150.59" y2="307.52" xlink:href="#Degradado_sin_nombre_16"/><linearGradient id="Degradado_sin_nombre_16-23" x1="316.79" y1="236.63" x2="1150" y2="230.31" xlink:href="#Degradado_sin_nombre_16"/><linearGradient id="Degradado_sin_nombre_16-24" x1="316.68" y1="222" x2="1149.89" y2="215.68" xlink:href="#Degradado_sin_nombre_16"/><linearGradient id="Degradado_sin_nombre_16-25" x1="316.25" y1="165.12" x2="1149.46" y2="158.8" xlink:href="#Degradado_sin_nombre_16"/><linearGradient id="Degradado_sin_nombre_16-26" x1="316.25" y1="164.99" x2="1149.46" y2="158.67" xlink:href="#Degradado_sin_nombre_16"/><linearGradient id="Degradado_sin_nombre_16-27" x1="316.25" y1="164.79" x2="1149.46" y2="158.47" xlink:href="#Degradado_sin_nombre_16"/><linearGradient id="Degradado_sin_nombre_16-28" x1="316.6" y1="210.39" x2="1149.8" y2="204.07" xlink:href="#Degradado_sin_nombre_16"/><linearGradient id="Degradado_sin_nombre_16-29" x1="316.11" y1="146.62" x2="1149.32" y2="140.3" xlink:href="#Degradado_sin_nombre_16"/><linearGradient id="Degradado_sin_nombre_16-30" x1="317.4" y1="316.93" x2="1150.61" y2="310.61" xlink:href="#Degradado_sin_nombre_16"/><linearGradient id="Degradado_sin_nombre_16-31" x1="317.31" y1="305.12" x2="1150.52" y2="298.8" xlink:href="#Degradado_sin_nombre_16"/><linearGradient id="Degradado_sin_nombre_16-32" x1="317.08" y1="274.39" x2="1150.29" y2="268.07" xlink:href="#Degradado_sin_nombre_16"/><linearGradient id="Degradado_sin_nombre_16-33" x1="317.57" y1="338.66" x2="1150.78" y2="332.34" xlink:href="#Degradado_sin_nombre_16"/><linearGradient id="Degradado_sin_nombre_16-34" x1="315.85" y1="112.64" x2="1149.06" y2="106.32" xlink:href="#Degradado_sin_nombre_16"/><linearGradient id="Degradado_sin_nombre_16-35" x1="315.76" y1="100.04" x2="1148.97" y2="93.72" xlink:href="#Degradado_sin_nombre_16"/><linearGradient id="Degradado_sin_nombre_16-36" x1="315.76" y1="100.44" x2="1148.97" y2="94.12" xlink:href="#Degradado_sin_nombre_16"/><linearGradient id="Degradado_sin_nombre_16-37" x1="315.46" y1="61.22" x2="1148.67" y2="54.9" xlink:href="#Degradado_sin_nombre_16"/><linearGradient id="Degradado_sin_nombre_16-38" x1="315.34" y1="44.18" x2="1148.54" y2="37.86" xlink:href="#Degradado_sin_nombre_16"/><linearGradient id="Degradado_sin_nombre_16-39" x1="316.27" y1="166.89" x2="1149.47" y2="160.57" xlink:href="#Degradado_sin_nombre_16"/><linearGradient id="Degradado_sin_nombre_16-40" x1="316.48" y1="194.84" x2="1149.69" y2="188.52" xlink:href="#Degradado_sin_nombre_16"/><linearGradient id="Degradado_sin_nombre_16-41" x1="316.7" y1="224.67" x2="1149.91" y2="218.35" xlink:href="#Degradado_sin_nombre_16"/><linearGradient id="Degradado_sin_nombre_16-42" x1="316.54" y1="203.25" x2="1149.75" y2="196.93" xlink:href="#Degradado_sin_nombre_16"/><linearGradient id="Degradado_sin_nombre_16-43" x1="317.05" y1="270.08" x2="1150.26" y2="263.76" xlink:href="#Degradado_sin_nombre_16"/><linearGradient id="Degradado_sin_nombre_16-44" x1="317.32" y1="305.97" x2="1150.53" y2="299.65" xlink:href="#Degradado_sin_nombre_16"/><linearGradient id="Degradado_sin_nombre_16-45" x1="317.29" y1="302.14" x2="1150.5" y2="295.82" xlink:href="#Degradado_sin_nombre_16"/><linearGradient id="Degradado_sin_nombre_16-46" x1="317.39" y1="314.56" x2="1150.59" y2="308.24" xlink:href="#Degradado_sin_nombre_16"/></defs><title>menlog</title><path class="cls-1" d="M1152.13 696.6c9.58.77 19.17.06 28.73.74 1.53.11 2.9-.06 2.8-2.15-.07-1.66.46-3.49-2.06-4-2.91-.62-5.78-1.45-8.63-2.32-7.59-2.35-10.57-4.77-10.59-14.45-.09-40 0-80 0-120a51 51 0 0 1 .55-5.12c.36-3.59 2.48-5.25 5.69-5.92a33 33 0 0 1 5.57-.85c3.07-.11 2.25-2.27 2.4-4 .22-2.44-1.39-2.33-3-2.33-7.09 0-14.21.46-21.24-.16-6.08-.53-10 .94-11.13 7.29a3.51 3.51 0 0 1-.44.83c-4.84 9.53-9.73 19-14.52 28.59-13.23 26.42-26.41 52.86-41 78.55-2.06 3.63-3.5 7.66-6.52 11-.67-1-1.27-1.74-1.69-2.55-5.26-10-10.65-20-15.68-30.11-6.57-13.23-12.92-26.58-19.26-39.92-8-16.87-16.94-33.34-22.74-51.2a3 3 0 0 0-3.39-2.38c-6.45.09-12.91 0-19.36 0H981.5c-1.67 0-2.6.37-2.61 2.34 0 3.13.14 3.42 3.39 3.52h1.89c7.71.23 10.76 3.32 10.8 11.11 0 3.14-.28 6.28-.28 9.42-.06 32.27 0 64.55-.15 96.82a70.18 70.18 0 0 1-2.54 19.49c-1.93 6.56-6.1 10.87-13 12.25a34.65 34.65 0 0 1-4.2.51c-2.29.17-3.23 1.19-3.14 3.63s1.52 2.56 3.42 2.66c4.42.23 8.76-.58 13.16-.67 11.95-.25 23.88.56 35.81.92 2.09.07 2.82-.51 2.81-2.56s0-3.77-2.87-3.63a19.51 19.51 0 0 1-4.17-.64c-7.36-1.31-13-4.86-15.09-12.42a31.08 31.08 0 0 1-1.17-8.36q.12-50.29.12-100.6v-4.22a13.91 13.91 0 0 1 1.52 1.7c5.39 9.94 11 19.77 16.09 29.86 10.21 20.21 20.13 40.56 30.2 60.84 5.73 11.55 11.31 23.16 14.93 35.59 1.06 3.64 1.11 3.63 4.7 3.63s3.61 0 4.83-3.64a277 277 0 0 1 16.05-39.21c13.91-27 28.12-53.76 42.23-80.61 1.64-3.13 3.42-6.2 5.14-9.3l.65.33v113.8c0 6.6-1.61 8.55-7.72 10.78-3.41 1.25-7 1.58-10.48 2.64-2.06.63-2.68 2.2-2.17 4.77.38 1.92 1.83 1.41 2.95 1.34 4.69-.28 9.37-.74 14.06-1 5.15-.33 10.34-1.05 15.47-.63zm-774.64 1.93c1.88 0 3.18-.77 3.09-3.18-.08-2.13-1.12-2.73-2.89-2.85-1.25-.09-2.51-.19-3.76-.22a37.33 37.33 0 0 1-16.32-4.07c-7.69-3.94-13.89-9.7-19.56-16.09-9-10.14-16.38-21.47-24.27-32.43-5.32-7.38-10.56-14.82-15.81-22.22 1.13-1.16 2.42-1.19 3.58-1.57 7.54-2.45 14.75-5.69 20.65-11.06 10.09-9.17 13.24-20.76 11.64-34.14-1.69-14-8.93-23.87-21.32-30.13-11.84-6-24.61-7.38-37.61-6.68-11 .6-21.92 1.36-32.91 1.44-6.76 0-13.52.19-20.28.3-2 0-3.77.18-3.78 3 0 3 0 3.18 3.29 3.68 8.25 1.27 10.89 4.19 10.89 12.47q0 58.34-.12 116.67a52.13 52.13 0 0 1-1.06 9.81 10.57 10.57 0 0 1-8.52 9c-.91.22-1.86.25-2.77.48-2.73.67-1.92 2.91-1.86 4.65.07 2.25 1.66 1.57 3.09 1.45q9.15-.74 18.3-1.26c6-.35 11.91.41 17.86.78 3.59.23 7.18.56 10.78.77.87.05 1.89.24 2.39-.92a4.1 4.1 0 0 0-2.75-5.68c-2.12-.58-4.26-1.11-6.33-1.83a8.76 8.76 0 0 1-6.13-8.2c-.3-3.59-.65-7.2-.66-10.79q0-54.09.11-108.17a115.26 115.26 0 0 1 .75-11.73c.54-5.24 3-7.7 8.34-8.65a51.17 51.17 0 0 1 20.54.91c13.11 3 21.17 10.9 24.07 24.17a53.49 53.49 0 0 1 .74 16.43c-1 11.25-6 20.39-16.18 26.12a51.59 51.59 0 0 1-16 5.39c-2.35.44-4.91.1-7.33 1.33a35.84 35.84 0 0 0 4.44 7c4.61 6.36 9.2 12.74 13.83 19.08q15.57 21.33 31.18 42.6a30 30 0 0 0 15.63 10.86c14.06 4.37 28.54 3.64 43.03 3.48zm551.2-161.17c-1.41 0-2.82.18-4.23.26-4.07.23-8.2 1-12.21.54-6.12-.62-12.26 0-18.36-.78-3.64-.44-4 .26-3.82 3.86.11 2.27 1.44 2.52 3.15 2.48 6.34-.15 9.74 3.55 11.76 9a27.32 27.32 0 0 1 1.18 4.06c2.28 11.13 2.58 22.44 2.79 33.72.26 13.85.16 27.71 0 41.57a101.86 101.86 0 0 1-4.25 28.79c-5.14 16.64-15.83 27.17-33.33 30.17a78.67 78.67 0 0 1-17.41.57c-17.88-.91-31.56-11.26-37.6-28.13a86 86 0 0 1-4.86-29.13q0-37.79.08-75.58c0-1.1-.05-2.21 0-3.31.31-5.22 2.62-9 7.84-10.55 1.81-.55 3.63-1.06 5.4-1.7s2.44-2.85 1.84-5.14c-.47-1.79-1.94-1.55-3-1.32-5.3 1.09-10.66.44-16 .71-4.23.22-8.49 1.23-12.67.63-6.89-1-13.75-.11-20.57-.7-.85 5.76-.85 5.76 4.11 6.53 1.09.17 2.2.2 3.26.45 4.31 1 6.46 3.47 6.87 7.85.12 1.24 0 2.51 0 3.77 0 25.83-.07 51.65 0 77.48 0 7.53.36 15.07 2.18 22.43 4.48 18.08 14.7 31.53 32.23 38.53a82.47 82.47 0 0 0 56.74 1.89c13.95-4.4 23.6-13.82 29.48-27.3 5.14-11.77 6.62-24.25 6.92-36.78.46-19.33.69-38.67 1.15-58 .13-5.82.16-11.64.35-17.45.27-8.17 3-11.29 11-12.78a11.69 11.69 0 0 1 1.86-.24c1.35 0 1.86-.71 2-2 .43-3.76-.04-4.4-3.88-4.4zM526.18 696.08c2.16-.16 3.37-.7 4-3 2.22-8 4.7-16 7.13-24.13-4.76-1.45-7.66 0-9.92 3.75-1.7 2.8-4 5.21-6 7.86-5.29 7.21-12.52 10.06-21.26 10-11.49-.12-23 0-34.48-.09a106.24 106.24 0 0 1-11.27-.73c-3.57-.4-3.59-.55-3.58-4.27v-62.83c0-1.41.75-1.92 2.07-1.9 10.68.18 21.39-.58 32 .9a9.77 9.77 0 0 1 8.09 6.4 36.56 36.56 0 0 1 2.27 8.64c.43 2.86 2.76 1.87 4.49 2 2.21.2 2.05-1.34 2.05-2.79v-39.21c0-1.4.27-2.81-2-2.91-3.25-.14-4.1.11-4.55 2.57-.33 1.84-.29 3.76-.58 5.61-1.27 8.08-4.53 11-12.64 12-9.42 1.14-18.86.25-28.28.58-2.71.1-3-1.23-3-3.47.09-9.28 0-18.58.07-27.87.07-9.89-.49-19.81.67-29.68 1.24-10.44 1.64-9.16 10-10.35 10.31-1.47 20.71-.91 31.08-.81a22.83 22.83 0 0 1 14.46 5.23c3.43 2.77 7 5.49 9.56 9.07s5.65 3.75 9.81 2.82c-2.78-6.29-5.63-12.2-8-18.31-1.34-3.5-3.62-4.68-7-4.7-8.3 0-16.57-.57-24.89-.47-14.77.18-29.54.74-44.31 1-7.85.12-15.73.58-23.56-.51-.76-.11-1.79-.17-2 .78a9.47 9.47 0 0 0 .1 5.12c.48 1.33 1.91.73 2.92.94 6 1.29 8.12 3.73 8.42 10.07.07 1.57 0 3.15 0 4.72Q428 610 428 662c0 2.51.22 5 .38 7.52a93.13 93.13 0 0 1-.22 13.67c-.38 4.57-2.19 6.31-6.64 7.3-1.69.38-3.41.59-5.11.89-3.17.56-1.33 3-1.59 4.59-.3 1.78 1.09 1.78 2.52 1.63a214.94 214.94 0 0 1 25.37-1.33c11.47.16 22.94-.11 34.42.55 8.16.47 16.37 0 24.56.14s16.31-.29 24.49-.88zM727.1 533.74c-.26-.71-.37-1.53-1.16-2-1.32-.73-5.41-.22-6.46 1.17a7.37 7.37 0 0 1-4.82 2.63 46.87 46.87 0 0 1-9.81.94c-34.48-.17-69 .47-103.42-.49-6-.17-12.5.42-17.91-4.18-2.55-2.17-6.06-.16-6.95 3.2-2.62 9.85-5.25 19.71-7.8 29.58-.9 3.48-.71 3.25 2.7 4.36 2.53.83 3.16-.83 3.87-2.26 2.37-4.8 4.92-9.48 7.75-14 3.33-5.33 7.74-9.24 14.36-9.31 12.91-.14 25.82-.11 38.73 0 4.08 0 5.26 1.44 5.43 5.46v1.89q0 63.3-.1 126.58a30 30 0 0 1-.27 4.23c-.86 6.08-3.2 8.52-9.23 9.58-2.31.4-4.66.62-7 .94-2.88.39-3 .8-3 3.92.06 2.83 2 2.37 3.61 2.27 4.07-.24 8.13-.72 12.19-.86 10.81-.38 21.6-1.8 32.44-.41 3 .38 6 .25 8.94.38 1.62.07 2.8-.27 2.69-2.29-.1-1.68.43-3.57-2.24-3.8a59.72 59.72 0 0 1-7.44-1c-5.32-1.13-7.29-3.51-7.93-9-.71-6.13 0-12.25 0-18.37.08-18.58 0-37.15 0-55.73h.11V548.6c0-4.7.71-5.44 5.42-5.55 3.94-.09 7.87-.07 11.81 0 9.28.14 18.56-.27 27.85.26a16 16 0 0 1 11.52 5.53c4.18 4.61 6.93 10.06 9.72 15.53 1.85 3.64 1.85 3.51 5.73 2.47 1.9-.51 2.16-1.26 1.52-3-3.6-10.03-7.2-20.07-10.85-30.1zm-554.18 28.42c-.24-3.9.22-7.84-.67-11.74-.3-1.3-.61-1.94-2-1.93-5.36.06-10.09-2.09-14.73-4.43-22.85-11.53-46.8-13.87-71.43-7.64-27.73 7-47.27 24-58.12 50.56-6.49 15.92-7.2 32.51-4 49.14 3.48 17.82 11.92 33 26.32 44.55S79.85 697.15 98 698.91c9.22.89 18.47.56 27.7.29a102.32 102.32 0 0 0 27.78-4.51c3-.93 5.85-2.28 8.74-3.47a1.5 1.5 0 0 0 1.08-1.42c-.07-.94-.86-1.25-1.66-1.35a13.91 13.91 0 0 0-6.54.45c-10.36 3.74-21.16 4.23-32 4.18-2.67 0-5.34-.06-8 0a43 43 0 0 1-8.41-.83c-27-4.52-46.19-18.85-55.91-44.78-4.51-12-5.76-24.57-4.69-37.47 1.1-13.34 4.31-26 10.65-37.75 6.53-12.13 15.74-21.73 28.52-27 19.72-8.22 39.44-7.63 58.81 1.63a33.45 33.45 0 0 1 16.77 17.71 120.05 120.05 0 0 1 6.89 21.49c.6 2.68 1.16 2.69 4.52 2.62 2.66 0 1.84-2.13 1.79-3.47-.31-7.71-.65-15.39-1.12-23.07zm214.13 282.28c6-1.93 9.87-5.89 11.34-12.11a28.69 28.69 0 0 0 .33-7c-.08-8.55-5.81-15.49-14.29-16.73-11.1-1.62-22.3-.38-33.44-.7-1.85-.05-2.52.9-2.46 2.62v60.42c0 .63.08 1.45.7 1.63a12.18 12.18 0 0 0 6.95.05c1.64-.5.93-2.46.94-3.78.06-6.77.09-13.54 0-20.3 0-2.21.69-3.15 3-3a52.36 52.36 0 0 0 8 0c3.54-.37 5.74.81 7.62 4 4.14 7 8.72 13.81 13.18 20.66.82 1.26 1.43 2.86 3.43 2.82h9.53c-6.16-9.56-11.76-18.22-17.31-26.83a3.69 3.69 0 0 1 2.48-1.75zm-17.75-6.66v.29c-3.14 0-6.28-.06-9.42 0-2 .06-2.77-.82-2.74-2.8.08-5.5.13-11 0-16.49 0-2.38 1-2.93 3.13-2.91 6.28.07 12.57-.09 18.85.07s10 4.27 10.32 10.49c.44 8.08-4.17 10.58-9.81 11.25-3.39.43-6.88.1-10.33.1zm653.58 6.09c5.27-2.29 7.94-6.67 8.76-12a25 25 0 0 0-.82-11.66 15.49 15.49 0 0 0-8.94-9.75 21.93 21.93 0 0 0-8.7-1.84h-27.84c-3.62 0-3.69.07-3.71 3.62v57.09c0 4.35 0 4.35 4.5 4.33a5.9 5.9 0 0 1 .94 0c2.45.29 3.31-.78 3.24-3.23-.13-5.34-.09-10.7 0-16 0-2.48-1.07-5.57.54-7.31 1.83-2 5.06-.73 7.66-.76 8.11-.1 8 0 12.44 7.1 3.73 6 7.61 11.92 11.46 17.86.74 1.15 1.34 2.48 3.14 2.42 2.9-.09 5.8 0 9.58 0l-17.69-27.5c2.27-1.05 3.87-1.68 5.44-2.37zm-20.52-5.31v.25h-9.43c-1.61 0-2.72-.31-2.7-2.3q.09-8.94 0-17.9c0-1.94 1-2.35 2.67-2.34 6.44 0 12.92-.39 19.32.14 9 .75 12 7.74 9.63 15.67-1.4 4.71-5.71 6-10.09 6.42-3.1.29-6.26.06-9.4.06zm176.41-1.56c-6.21-1.67-12.59-2.73-18.64-5-3.62-1.34-6.37-3.84-6.25-8s2.8-6.86 6.64-8.32a22.89 22.89 0 0 1 11.62-1c5.54.8 9.63 3.65 11.63 9.09.48 1.32-.17 3.06 1.08 4 1.4 1 3-.37 4.56-.07a14.74 14.74 0 0 0 1.88 0c2 .11 2.47-.9 2.12-2.65-1.12-5.61-3.61-10.41-8.53-13.59-8.28-5.34-17.33-4.7-26.43-3.11a18.37 18.37 0 0 0-8.64 4.6c-8.36 7.15-7.24 21.74 3.22 26.5a57.32 57.32 0 0 0 12.48 4.14c4.3.86 8.73 1.37 12.82 3 7.45 3 7.63 9.17 5.18 14.31a11.72 11.72 0 0 1-7.51 6.1 23.32 23.32 0 0 1-11.19.58c-8.32-1.56-12.32-5.61-13.87-13.88-.14-.76 0-1.59-.78-2.29-1.58.18-3.27.4-5 .58-4 .43-4.51 1-3.71 5 1.74 8.71 7.14 14.15 15.5 16.71 6.45 2 13.1 1.53 19.67.85a22.33 22.33 0 0 0 10-3.9 18.8 18.8 0 0 0 5.09-25.88c-3.07-4.58-7.85-6.43-12.94-7.77zm-471.7-23.87c0-4.86-.05-4.81-4.57-4.77-2.18 0-3.53.34-3.46 3.07.2 7.55.16 15.11.18 22.66s0 15.27 0 24c-1.24-1.48-1.86-2.11-2.35-2.83q-4-5.84-8-11.7Q678 827.29 667.08 811c-1.57-2.32-7.45-3.75-9.68-2.4a1.79 1.79 0 0 0-.79 1.61v56.19c0 7.36 0 7.36 7.93 6.11 0-8.11-.06-16.26 0-24.4s-.58-16.36-.1-24.73a2 2 0 0 1 1.74 1.24l19 28.14c4.13 6.13 8.21 12.29 12.37 18.4 1.2 1.76 5.67 2.7 8.19 1.69 2.16-.87 1.3-3 1.3-4.51q.06-27.59.03-55.21zm157.7 52.35h-4.25c-8.34 0-16.68-.06-25 0-2.12 0-3.16-.56-3.1-2.92.12-5.19.09-10.39 0-15.58 0-2 .8-2.82 2.79-2.75 2.68.08 5.35 0 8 0h17.46c1.22 0 2.57.2 3.11-1.42 1.39-4.19-.24-6.6-4.54-6.61-7.86 0-15.73-.09-23.59 0-2.43 0-3.36-.81-3.27-3.27.15-4.08 0-8.18.06-12.27 0-3.75.08-3.8 4-3.82h27.38c4.85 0 4.85-.16 4.79-5.07 0-2.38-.74-3.32-3.24-3.31-12.75.09-25.49 0-38.23 0-3.27 0-3.36.11-3.37 3.5-.05 9.6 0 19.2 0 28.79v28.32c0 4.32 0 4.36 4.47 4.38h36.82c.94 0 1.88 0 2.82-.1a1.7 1.7 0 0 0 1.58-1.46c1.27-4.38-.17-6.37-4.69-6.41zM220.45 813c-2-5.43-2-5.29-8.06-5.35-2.56 0-3.79.66-4.76 3.27-5 13.69-10.42 27.25-15.64 40.87-2.56 6.71-5 13.46-7.68 20.54 2.83.72 5 .29 7.22.46 1.84.15 2.82-.56 3.44-2.38 1.56-4.6 3.62-9.06 4.93-13.73.83-3 2.37-3.57 5.08-3.5 5.5.15 11 .18 16.5 0 2.86-.1 4.28.93 5.12 3.62 1.4 4.49 3.15 8.87 4.68 13.32.48 1.42.92 2.72 2.75 2.67 2.47-.07 5 .31 7.5-.29a6.16 6.16 0 0 0-.11-1.52Q231 842 220.45 813zm-15.34 32.35c.2-3.4 5.75-19.22 8.73-24.64l8.61 24.64zM74.58 807.69c-10-.28-20.12-.25-30.18-.27-3.52 0-3.58.1-3.6 3.81v28.78h-.06v30.2c-.08 1.76.69 2.64 2.5 2.54h1.89c4.18 0 4.23 0 4.26-4.08v-19.82c0-3.36.09-3.44 3.41-3.46 6.61-.06 13.21 0 19.82 0 8 0 13.92-4.17 16.6-11.53 1.23-3.36.77-6.85.74-10.29a15.71 15.71 0 0 0-15.38-15.88zm6.56 19.41c-.42 5.69-3.78 9.23-8.84 9.87-6.41.83-12.83.69-19.25.65-3.42 0-3.59-.19-3.63-3.38-.07-5.19.06-10.37 0-15.56 0-2.38.82-3.44 3.29-3.32 3 .13 6 0 9.2 0 3.83.14 7.91-.34 11.94.71 5.15 1.37 7.73 5.2 7.29 11.03zm468.8-15.98c.18-2-.66-2.81-2.7-2.8h-42.47c-2.78 0-2.9.34-2.88 4s0 3.78 3.09 3.84c4.24.1 8.49 0 12.74.06 3.63 0 3.7.08 3.72 3.63v47.75c0 5.67 0 5.67 5.77 5.39a2.46 2.46 0 0 1 .47 0c2.12.2 2.76-1 2.66-2.85v-3.3c0-15.42 0-30.83.06-46.25 0-4.21.07-4.24 4.15-4.28s8.18-.12 12.27 0c2.54.1 3.39-1 3.15-3.33a9.94 9.94 0 0 1-.03-1.86z" transform="translate(-20.13 -131.46)"/><path class="cls-2" d="M315.77 305.5h17.43v17.43h-17.43z"/><path class="cls-3" d="M336.57 325.5h10.36v11.88h24.58V302.3h-34.94v23.2z"/><path class="cls-4" d="M336.57 327.68h8.95v9.58h-8.95z"/><path class="cls-5" d="M375.11 304.21h17.27v17.27h-17.27z"/><path class="cls-6" d="M406.54 304.21h17.27v17.27h-17.27z"/><path class="cls-7" d="M375.06 330.09h17.74v17.74h-17.74z"/><path class="cls-8" d="M377.13 271.54h26.27v26.27h-26.27z"/><path class="cls-9" d="M440.46 265.62h-34.28v34.11h20.7V293h13.58v-27.38z"/><path class="cls-10" d="M428.13 294.27h12.33v5.45h-12.33z"/><path class="cls-11" d="M500.53 266.92h-16.74v-10.4H449.8v33.99h11.07v13.25h-6.93v16.73h-11.7v9.8h-11.09v17.87h17.87v-9.37h27.34v-11.11h44.94v-45.85h-20.77v-14.91z"/><path class="cls-12" d="M501.74 266.95h19.52v12.96h-19.52z"/><path class="cls-13" d="M442.2 303.64h10.4v15.31h-10.4z"/><path class="cls-14" d="M633.06 276.86h75.97v-.16h.1v-86.81h-34.36v80.84H567.54v-56.72h-30.98v13.91h16.71v30.41h4.6v45.09H526.8v44.74h44.75v-38.68h36.8v23.35h12.01v-50.16h12.7v-5.81z"/><path class="cls-15" d="M536.64 230.02h15.28v28.28h-15.28z"/><path class="cls-16" d="M602.79 269.2h30.27v.09h39.85v-79.78h-51.24v31.29h11.39v27.21h-27.78v-14.04H580.7v-19.83h-12.1v55.06h34.19z"/><path class="cls-17" d="M623.79 246.66h7.83v-24.12h-10.35v11.44h-13.94v12.68h16.46z"/><path class="cls-18" d="M633.18 284.72h-11.24v48.2h17.28v-31.86h-6.04v-16.34z"/><path class="cls-19" d="M647.79 302.75h26.31v33.81h-26.31z"/><path class="cls-20" d="M676.17 338.2h-28.38v9.5h45.19v-44.87h-16.81v35.37z"/><path class="cls-21" d="M700.68 324.46h20.67v24.21h-20.67z"/><path class="cls-22" d="M741.91 285.41H700.8v37.81h21.6v25.45h41.33v-11.85h-21.82v-51.41z"/><path class="cls-23" d="M743.9 285.72h19.33v49.62H743.9z"/><path class="cls-24" d="M783.6 191.15h-62.44v84.11h60.01v.08h23.85V247.5H783.6v-56.35z"/><path class="cls-25" d="M785.5 191.5h19.32v53.75H785.5z"/><path class="cls-26" d="M785.69 139.3h18.3v44.39h-18.3z"/><path class="cls-27" d="M759.9 139.3h24.38v44.46H759.9z"/><path class="cls-28" d="M686.35 139.6h44.43v44.43h-44.43z"/><path class="cls-29" d="M828.9 174.47h33.82v63.81H828.9z"/><path class="cls-30" d="M875.07 134.01h53.88v16.33h-53.88z"/><path class="cls-31" d="M770.08 291.27h23.61v44.28h-23.61z"/><path class="cls-32" d="M835.58 336.82v-18.78h43.15v-29.51h-16.27v-34.94h-48.22v37.81H795.9v45.42h-25.3v12.14h64.98v-12.14z"/><path class="cls-33" d="M863.85 253.59h14.88v33.19h-14.88z"/><path class="cls-34" d="M874.94 319.85h30.2v28.94h-30.2z"/><path class="cls-35" d="M925.87 94.28h17.32v27.35h-17.32z"/><path class="cls-36" d="M944.87 122.24h35.53V68.22h-18.43v-.05h-35.8v24.7h18.7v29.37z"/><path class="cls-37" d="M990.1 61.13h69.51v67.85H990.1z"/><path class="cls-38" d="M1102.68 33.92h40.05v42.35h-40.05z"/><path class="cls-39" d="M1065.61 31.56V76.7h34.7V31.56h42.6V0h-77.3v31.56z"/><path class="cls-40" d="M1102.55 136.87h43.07v47.77h-43.07z"/><path class="cls-41" d="M1100.17 137.12h-31.46v49.98h-8.4v-50.23h-78.16v13.76h41.66v43.08h.15v19.58h-.15v28.38h96.05v-20.91H1091v-6.51h54.62V187.1h-45.45v-49.98z"/><path class="cls-42" d="M982.58 184.78h-38.37v62.31H892.1v39.24h100.73v-44.39h28.24v-89.12h-38.49v31.96z"/><path class="cls-43" d="M891.98 244.68h40.55v.17h9.84v-60.06h-9.84v53.87h-39.65v-50.77h35.89v-35.22h-53.9v22.09h-10.4v64.03h27.51v5.89z"/><path class="cls-44" d="M994.98 243.34h26.05v42.99h-26.05z"/><path class="cls-45" d="M1120.14 285.02h29.5v29.5h-29.5z"/><path class="cls-46" d="M1091 308.79v-30.75h29.24v-34.1h-96.98v44.79h-28.4v41.79h77.7v18.44h38.13v-40.17H1091z"/><path class="cls-47" d="M892.31 316.81h39.09v14.25h61.43v-14.25h.04v-28.24H892.31v28.24z"/></svg>