<svg xmlns="http://www.w3.org/2000/svg" width="48" height="48" viewBox="0 0 48 48">
  <path fill="#b9d6ee" d="M24 4C12.954 4 4 12.954 4 24s8.954 20 20 20 20-8.954 20-20S35.046 4 24 4zm0 36c-8.837 0-16-7.163-16-16S15.163 8 24 8s16 7.163 16 16-7.163 16-16 16z"/>
  <path fill="#b9d6ee" d="M24 12c-6.627 0-12 5.373-12 12s5.373 12 12 12 12-5.373 12-12-5.373-12-12-12zm0 20c-4.418 0-8-3.582-8-8s3.582-8 8-8 8 3.582 8 8-3.582 8-8 8z"/>
  <text x="24" y="26" text-anchor="middle" fill="#b9d6ee" font-family="Arial" font-size="10">CRETUM</text>
</svg> 